<?xml version="1.0" encoding="UTF-8"?>
<svg version="1.1" xmlns="http://www.w3.org/2000/svg" width="2000" height="2000">
<path d="M0 0 C1.08211934 -0.00165078 2.16423868 -0.00330156 3.27914951 -0.00500236 C6.9073661 -0.00931829 10.53554192 -0.00652886 14.16375953 -0.00377727 C16.80163629 -0.00542733 19.43951008 -0.00747295 22.07738587 -0.00999737 C27.83185183 -0.0147031 33.58630919 -0.01569769 39.34077676 -0.01426902 C47.95563124 -0.01214596 56.57047683 -0.01576396 65.18532994 -0.0204838 C79.86837288 -0.02835435 94.55141338 -0.0314457 109.23445827 -0.03192973 C124.11579505 -0.03243212 138.99712911 -0.035079 153.878465 -0.04033732 C154.81818953 -0.04066746 155.75791405 -0.04099759 156.72611508 -0.04133773 C160.55345722 -0.04268773 164.38079936 -0.04405039 168.20814149 -0.04542983 C213.52295455 -0.06173302 258.83776709 -0.06811858 304.15258258 -0.0728777 C326.71748797 -0.07526093 349.28239306 -0.07896441 371.84729823 -0.0829148 C444.22961568 -0.09557951 516.61193311 -0.10636325 588.99425165 -0.10975526 C592.45381659 -0.1099175 595.91338152 -0.11008306 599.37294645 -0.11024964 C606.3111502 -0.11058344 613.24935395 -0.11091392 620.1875577 -0.1112442 C628.31049592 -0.1116311 636.43343414 -0.11202071 644.55637237 -0.11241527 C646.88122264 -0.11252769 649.20607292 -0.1126391 651.53092319 -0.11274952 C726.19209675 -0.11629872 800.85326069 -0.13137602 875.51443058 -0.15468726 C929.16238993 -0.17143083 982.81034747 -0.18690476 1036.45830947 -0.19142222 C1037.56180853 -0.19151571 1038.66530759 -0.1916092 1039.80224601 -0.19170551 C1064.02796132 -0.19372465 1088.2536766 -0.19488062 1112.47939198 -0.1952341 C1121.14812918 -0.19537027 1129.81686637 -0.19557926 1138.48560356 -0.19582735 C1140.64215681 -0.19588891 1142.79871006 -0.19594723 1144.95526332 -0.1960023 C1179.30656291 -0.19692179 1213.65785245 -0.20688604 1248.00914873 -0.22145979 C1282.61467472 -0.23608263 1317.22018838 -0.24111337 1351.82571692 -0.23304025 C1356.61112313 -0.23192492 1361.39652936 -0.23091424 1366.18193561 -0.22996593 C1367.11997823 -0.22977596 1368.05802085 -0.22958599 1369.024489 -0.22939027 C1383.85819116 -0.22666005 1398.69187047 -0.23398755 1413.52556766 -0.24553929 C1428.12332333 -0.25669697 1442.72104681 -0.25709446 1457.31880299 -0.24616911 C1465.86888931 -0.24008925 1474.41887828 -0.24212302 1482.96895535 -0.25642108 C1488.66004404 -0.2651095 1494.3510617 -0.26275116 1500.0421461 -0.25172237 C1503.26015687 -0.24578634 1506.47794326 -0.24594173 1509.69594777 -0.25640723 C1529.58180971 -0.31679639 1549.17304841 0.9455722 1568.50930721 5.8776505 C1570.05340266 6.26171056 1570.05340266 6.26171056 1571.62869197 6.65352941 C1600.21775584 13.95089951 1628.92927996 25.66243143 1652.88430721 43.1276505 C1653.48517146 43.56158116 1654.08603572 43.99551183 1654.70510799 44.44259191 C1673.73677798 58.2326287 1691.44248008 73.48023635 1705.88430721 92.1276505 C1706.67063533 93.10862706 1707.45696346 94.08960362 1708.26711971 95.10030675 C1740.1934359 135.2036435 1761.12432981 187.60307603 1761.01195771 239.24334329 C1761.01443387 240.8665223 1761.01443387 240.8665223 1761.01696006 242.5224928 C1761.02127599 246.1507094 1761.01848657 249.77888521 1761.01573497 253.40710282 C1761.01738503 256.04497958 1761.01943065 258.68285337 1761.02195507 261.32072917 C1761.0266608 267.07519513 1761.02765539 272.82965249 1761.02622673 278.58412006 C1761.02410367 287.19897453 1761.02772167 295.81382013 1761.0324415 304.42867323 C1761.04031206 319.11171617 1761.04340341 333.79475668 1761.04388744 348.47780156 C1761.04438982 363.35913834 1761.04703671 378.2404724 1761.05229503 393.12180829 C1761.05262516 394.06153282 1761.0529553 395.00125735 1761.05329543 395.96945838 C1761.05464543 399.79680052 1761.0560081 403.62414265 1761.05738754 407.45148478 C1761.07369073 452.76629784 1761.08007629 498.08111038 1761.08483541 543.39592588 C1761.08721863 565.96083127 1761.09092211 588.52573636 1761.09487251 611.09064152 C1761.10753722 683.47295897 1761.11832095 755.85527641 1761.12171296 828.23759495 C1761.1218752 831.69715988 1761.12204076 835.15672481 1761.12220735 838.61628975 C1761.12254115 845.5544935 1761.12287163 852.49269724 1761.12320191 859.43090099 C1761.12358881 867.55383921 1761.12397841 875.67677744 1761.12437297 883.79971566 C1761.12448539 886.12456594 1761.12459681 888.44941621 1761.12470723 890.77426648 C1761.12825642 965.43544005 1761.14333372 1040.09660398 1761.16664497 1114.75777387 C1761.18338853 1168.40573323 1761.19886247 1222.05369077 1761.20337993 1275.70165277 C1761.20352016 1277.35690135 1761.20352016 1277.35690135 1761.20366322 1279.0455893 C1761.20568236 1303.27130461 1761.20683833 1327.49701989 1761.20719181 1351.72273528 C1761.20732798 1360.39147247 1761.20753697 1369.06020966 1761.20778506 1377.72894685 C1761.20784662 1379.88550011 1761.20790494 1382.04205336 1761.20796001 1384.19860661 C1761.20887949 1418.5499062 1761.21884374 1452.90119574 1761.23341749 1487.25249202 C1761.24804034 1521.85801802 1761.25307107 1556.46353168 1761.24499795 1591.06906021 C1761.24388262 1595.85446642 1761.24287195 1600.63987265 1761.24192363 1605.4252789 C1761.24173366 1606.36332152 1761.24154369 1607.30136414 1761.24134797 1608.2678323 C1761.23861776 1623.10153445 1761.24594526 1637.93521376 1761.257497 1652.76891095 C1761.26865468 1667.36666662 1761.26905216 1681.9643901 1761.25812681 1696.56214628 C1761.25204695 1705.1122326 1761.25408073 1713.66222157 1761.26837879 1722.21229864 C1761.2770672 1727.90338734 1761.27470886 1733.59440499 1761.26368007 1739.28548939 C1761.25774404 1742.50350016 1761.25789943 1745.72128655 1761.26836494 1748.93929106 C1761.3287541 1768.82515301 1760.0663855 1788.41639171 1755.13430721 1807.7526505 C1754.75024715 1809.29674596 1754.75024715 1809.29674596 1754.3584283 1810.87203526 C1747.0610582 1839.46109914 1735.34952627 1868.17262325 1717.88430721 1892.1276505 C1717.45037654 1892.72851476 1717.01644588 1893.32937901 1716.5693658 1893.94845128 C1702.779329 1912.98012127 1687.53172136 1930.68582337 1668.88430721 1945.1276505 C1667.41284236 1946.30714269 1667.41284236 1946.30714269 1665.91165096 1947.510463 C1625.8083142 1979.4367792 1573.40888168 2000.3676731 1521.76861441 2000.255301 C1520.1454354 2000.25777717 1520.1454354 2000.25777717 1518.4894649 2000.26030336 C1514.86124831 2000.26461929 1511.23307249 2000.26182986 1507.60485488 2000.25907826 C1504.96697812 2000.26072832 1502.32910433 2000.26277395 1499.69122854 2000.26529837 C1493.93676258 2000.2700041 1488.18230522 2000.27099868 1482.42783765 2000.26957002 C1473.81298317 2000.26744696 1465.19813758 2000.27106496 1456.58328447 2000.2757848 C1441.90024154 2000.28365535 1427.21720103 2000.2867467 1412.53415614 2000.28723073 C1397.65281936 2000.28773311 1382.7714853 2000.29038 1367.89014941 2000.29563832 C1366.95042489 2000.29596846 1366.01070036 2000.29629859 1365.04249933 2000.29663873 C1361.21515719 2000.29798873 1357.38781505 2000.29935139 1353.56047293 2000.30073083 C1308.24565986 2000.31703402 1262.93084732 2000.32341958 1217.61603183 2000.3281787 C1195.05112644 2000.33056193 1172.48622135 2000.33426541 1149.92131618 2000.3382158 C1077.53899873 2000.35088051 1005.1566813 2000.36166425 932.77436276 2000.36505626 C929.31479782 2000.3652185 925.85523289 2000.36538406 922.39566796 2000.36555064 C915.45746421 2000.36588444 908.51926046 2000.36621492 901.58105671 2000.3665452 C893.45811849 2000.3669321 885.33518027 2000.36732171 877.21224204 2000.36771626 C874.88739177 2000.36782868 872.5625415 2000.3679401 870.23769122 2000.36805052 C795.57651766 2000.37159971 720.91535372 2000.38667702 646.25418383 2000.40998826 C592.60622448 2000.42673183 538.95826694 2000.44220576 485.31030494 2000.44672322 C484.20680588 2000.44681671 483.10330682 2000.44691019 481.9663684 2000.44700651 C457.74065309 2000.44902565 433.51493781 2000.45018162 409.28922243 2000.4505351 C400.62048523 2000.45067127 391.95174804 2000.45088026 383.28301085 2000.45112835 C381.1264576 2000.45118991 378.96990435 2000.45124823 376.81335109 2000.4513033 C342.4620515 2000.45222279 308.11076196 2000.46218704 273.75946568 2000.47676079 C239.15393969 2000.49138363 204.54842603 2000.49641437 169.94289749 2000.48834124 C165.15749128 2000.48722592 160.37208505 2000.48621524 155.5866788 2000.48526692 C154.17961487 2000.48498197 154.17961487 2000.48498197 152.74412541 2000.48469126 C137.91042325 2000.48196105 123.07674394 2000.48928855 108.24304675 2000.50084029 C93.64529108 2000.51199797 79.04756761 2000.51239546 64.44981142 2000.50147011 C55.8997251 2000.49539025 47.34973613 2000.49742402 38.79965906 2000.51172208 C33.10857037 2000.5204105 27.41755271 2000.51805215 21.72646831 2000.50702337 C18.50845754 2000.50108734 15.29067115 2000.50124273 12.07266664 2000.51170823 C-7.8131953 2000.57209739 -27.404434 1999.3097288 -46.74069279 1994.3776505 C-48.28478825 1993.99359044 -48.28478825 1993.99359044 -49.86007756 1993.60177159 C-78.44914143 1986.30440149 -107.16066555 1974.59286957 -131.11569279 1957.1276505 C-131.71655705 1956.69371984 -132.31742131 1956.25978917 -132.93649358 1955.81270909 C-151.96816357 1942.0226723 -169.67386566 1926.77506465 -184.11569279 1908.1276505 C-184.90202092 1907.14667394 -185.68834904 1906.16569737 -186.49850529 1905.15499425 C-218.42482149 1865.0516575 -239.35571539 1812.65222497 -239.24334329 1761.01195771 C-239.24499407 1759.92983837 -239.24664485 1758.84771903 -239.24834565 1757.73280819 C-239.25266158 1754.1045916 -239.24987216 1750.47641578 -239.24712056 1746.84819818 C-239.24877062 1744.21032142 -239.25081624 1741.57244763 -239.25334066 1738.93457183 C-239.25804639 1733.18010587 -239.25904098 1727.42564851 -239.25761232 1721.67118094 C-239.25548926 1713.05632646 -239.25910726 1704.44148087 -239.26382709 1695.82662777 C-239.27169765 1681.14358483 -239.27478899 1666.46054432 -239.27527303 1651.77749944 C-239.27577541 1636.89616266 -239.27842229 1622.0148286 -239.28368062 1607.13349271 C-239.28401075 1606.19376818 -239.28434088 1605.25404365 -239.28468102 1604.28584262 C-239.28603102 1600.45850048 -239.28739369 1596.63115835 -239.28877313 1592.80381622 C-239.30507632 1547.48900316 -239.31146188 1502.17419062 -239.316221 1456.85937512 C-239.31860422 1434.29446973 -239.3223077 1411.72956464 -239.32625809 1389.16465948 C-239.33892281 1316.78234203 -239.34970654 1244.40002459 -239.35309855 1172.01770605 C-239.35326079 1168.55814112 -239.35342635 1165.09857618 -239.35359294 1161.63901125 C-239.35392674 1154.7008075 -239.35425722 1147.76260376 -239.3545875 1140.82440001 C-239.35497439 1132.70146178 -239.355364 1124.57852356 -239.35575856 1116.45558534 C-239.35587098 1114.13073506 -239.3559824 1111.80588479 -239.35609281 1109.48103451 C-239.35964201 1034.81986095 -239.37471931 960.15869702 -239.39803056 885.49752713 C-239.41477412 831.84956777 -239.43024806 778.20161023 -239.43476552 724.55364823 C-239.434859 723.45014918 -239.43495249 722.34665012 -239.43504881 721.20971169 C-239.43706795 696.98399639 -239.43822392 672.75828111 -239.43857739 648.53256572 C-239.43871357 639.86382853 -239.43892256 631.19509134 -239.43917065 622.52635415 C-239.43923221 620.36980089 -239.43929053 618.21324764 -239.4393456 616.05669439 C-239.44026508 581.7053948 -239.45022933 547.35410526 -239.46480308 513.00280897 C-239.47942593 478.39728298 -239.48445666 443.79176932 -239.47638354 409.18624079 C-239.47526821 404.40083457 -239.47425754 399.61542835 -239.47330922 394.8300221 C-239.47311925 393.89197948 -239.47292928 392.95393685 -239.47273356 391.9874687 C-239.47000335 377.15376655 -239.47733085 362.32008724 -239.48888259 347.48639005 C-239.50004027 332.88863438 -239.50043775 318.2909109 -239.4895124 303.69315471 C-239.48343254 295.14306839 -239.48546632 286.59307943 -239.49976437 278.04300236 C-239.50845279 272.35191366 -239.50609445 266.66089601 -239.49506566 260.96981161 C-239.48912963 257.75180084 -239.48928502 254.53401445 -239.49975052 251.31600993 C-239.56013968 231.43014799 -238.29777109 211.83890929 -233.36569279 192.5026505 C-233.10965276 191.47325353 -232.85361272 190.44385655 -232.58981389 189.38326573 C-225.29244379 160.79420186 -213.58091186 132.08267775 -196.11569279 108.1276505 C-195.68176213 107.52678624 -195.24783147 106.92592198 -194.80075139 106.30684972 C-181.01071459 87.27517973 -165.76310695 69.56947763 -147.11569279 55.1276505 C-146.13471623 54.34132237 -145.15373967 53.55499425 -144.14303654 52.744838 C-104.03969979 20.8185218 -51.64026727 -0.1123721 0 0 Z " fill="#491F9F" transform="translate(239.11569279432297,-0.12765049934387207)"/>
<path d="M0 0 C112.86 0 225.72 0 342 0 C346.49964233 10.12419523 346.49964233 10.12419523 348.17211914 14.94799805 C348.55170273 16.03647537 348.93128632 17.1249527 349.32237244 18.24641418 C349.72259109 19.40646469 350.12280975 20.5665152 350.53515625 21.76171875 C351.19594978 23.66105314 351.85674478 25.56038702 352.51759815 27.45970058 C353.21859334 29.47668708 353.91771003 31.49431557 354.61627197 33.512146 C356.08505206 37.754452 357.55927089 41.99485466 359.03466797 46.23486328 C359.28310078 46.9488541 359.53153358 47.66284492 359.78749466 48.39847183 C360.29152319 49.84702781 360.79556552 51.29557897 361.29962158 52.74412537 C362.0611936 54.93325447 362.82227868 57.12255235 363.58325195 59.31188965 C368.23002037 72.67818356 372.921001 86.02874418 377.625 99.375 C379.17733268 103.78116219 380.72935616 108.18743323 382.28125 112.59375 C382.66563736 113.68503708 383.05002472 114.77632416 383.44606018 115.90068054 C386.31426955 124.04610215 389.17449863 132.19430338 392.03125 140.34375 C392.66108795 142.14045135 392.66108795 142.14045135 393.3036499 143.97344971 C394.15292557 146.39623597 395.00218907 148.8190265 395.85144043 151.24182129 C402.66379531 170.67593596 409.50747909 190.09836542 416.39752197 209.50506592 C422.90070759 227.8293492 429.31242513 246.18507839 435.71303558 264.54535675 C441.93042681 282.37966456 448.17680598 300.20284985 454.5 318 C461.30680264 337.15830642 468.02082555 356.34817362 474.71343994 375.54656982 C480.93063902 393.38049279 487.17694892 411.20325218 493.5 429 C500.06492756 447.47752908 506.54512673 465.98382709 513 484.5 C519.4766389 503.07831735 525.97777093 521.64713143 532.5625 540.1875 C538.88227486 557.98296458 545.14308798 575.79859615 551.375 593.625 C553.16262593 598.73832828 554.95029368 603.85164191 556.73828125 608.96484375 C557.06933554 609.91160036 557.06933554 609.91160036 557.40707779 610.87748337 C562.10812834 624.32029163 566.83236465 637.75490233 571.5625 651.1875 C578.0533147 669.6209267 584.53231775 688.05844371 591 706.5 C597.48965578 725.00364969 603.98895082 743.50386734 610.5 762 C617.01104924 780.49613283 623.51021276 798.99639632 630 817.5 C636.511763 836.06569707 643.03113458 854.62868945 649.5625 873.1875 C649.95293488 874.29692963 650.34336975 875.40635925 650.74563599 876.54940796 C653.49672593 884.36640037 656.24830425 892.18322083 659 900 C662.14617439 908.93737998 665.29212301 917.87483935 668.4375 926.8125 C668.82785431 927.92168793 669.21820862 929.03087585 669.62039185 930.17367554 C676.17827557 948.80928375 682.72150301 967.45001258 689.25997925 986.09243774 C695.32992331 1003.39850799 701.4103205 1020.70086482 707.5 1038 C714.43251497 1057.69340316 721.3504474 1077.39188007 728.26025391 1097.09326172 C734.72055086 1115.51224718 741.19338359 1133.92678413 747.67523193 1152.3381958 C752.1369988 1165.01202235 756.59402402 1177.68748295 761.0390625 1190.3671875 C761.458461 1191.563508 761.8778595 1192.75982849 762.30996704 1193.99240112 C763.15780138 1196.41088687 764.00563056 1198.82937442 764.85345459 1201.24786377 C765.27306458 1202.44481873 765.69267456 1203.64177368 766.125 1204.875 C766.54477112 1206.07243835 766.96454224 1207.26987671 767.39703369 1208.50360107 C773.36217643 1225.51662362 779.36567796 1242.51559397 785.39752197 1259.50506592 C792.13549289 1278.49091302 798.77765163 1297.50980752 805.40557861 1316.53427124 C810.27215232 1330.50274224 815.15090661 1344.46614606 820.109375 1358.40234375 C820.50765503 1359.522388 820.90593506 1360.64243225 821.31628418 1361.79641724 C823.17145916 1367.01081089 825.03132307 1372.2234636 826.8984375 1377.43359375 C827.55217765 1379.26689345 828.20582898 1381.10022483 828.859375 1382.93359375 C829.15100525 1383.7420726 829.4426355 1384.55055145 829.74310303 1385.38352966 C830.01318176 1386.14311478 830.2832605 1386.90269989 830.56152344 1387.68530273 C830.79272888 1388.33023178 831.02393433 1388.97516083 831.262146 1389.63963318 C832.32790106 1393.04894299 833.13366128 1396.53464512 834 1400 C735 1400 636 1400 534 1400 C531.30138595 1393.25346488 528.76420178 1386.58055677 526.48187256 1379.69958496 C526.15177067 1378.71239928 525.82166878 1377.72521359 525.48156381 1376.70811319 C524.38558322 1373.42809474 523.29385868 1370.14667639 522.20214844 1366.86523438 C521.41363943 1364.50241956 520.62487544 1362.13968982 519.83587646 1359.77703857 C517.92238704 1354.04472224 516.01169436 1348.31148093 514.10239479 1342.57776827 C512.55130269 1337.91996517 510.99903246 1333.26255626 509.44593048 1328.60542297 C509.22444354 1327.94126862 509.0029566 1327.27711427 508.77475794 1326.59283403 C508.32476675 1325.24349994 507.87477288 1323.89416674 507.42477635 1322.54483443 C503.21378682 1309.91755778 499.00646491 1297.28906149 494.80041173 1284.66013986 C491.18979701 1273.81934383 487.5760228 1262.97960524 483.95996094 1252.140625 C479.75762846 1239.54432042 475.5572352 1226.94737197 471.35995507 1214.34938288 C470.91290805 1213.00760471 470.46585852 1211.66582739 470.01880646 1210.3240509 C469.68888315 1209.33381816 469.68888315 1209.33381816 469.35229473 1208.32358071 C467.80044189 1203.66629358 466.24719495 1199.00947275 464.69341278 1194.35282898 C462.60575554 1188.09603745 460.52126599 1181.8381969 458.43894196 1175.57962799 C457.67241033 1173.27737822 456.90484581 1170.97547207 456.13619995 1168.67392731 C455.09143168 1165.54504609 454.05032746 1162.41496997 453.01019287 1159.2845459 C452.70164549 1158.36336519 452.3930981 1157.44218448 452.0752008 1156.4930892 C451.79899595 1155.65925915 451.52279109 1154.82542911 451.2382164 1153.96633148 C450.99736368 1153.24344862 450.75651096 1152.52056575 450.50835967 1151.77577734 C450 1150 450 1150 450 1148 C265.86 1148 81.72 1148 -108 1148 C-108.99 1151.63 -109.98 1155.26 -111 1159 C-112.10502591 1162.48720659 -113.22945026 1165.959488 -114.3911438 1169.42739868 C-114.7196857 1170.41614436 -115.04822759 1171.40489003 -115.38672531 1172.42359769 C-116.47779954 1175.70473687 -117.57311362 1178.98444394 -118.66845703 1182.26416016 C-119.45569263 1184.62857945 -120.24267324 1186.99308367 -121.02941895 1189.35766602 C-122.93805736 1195.09172988 -124.84948559 1200.82485653 -126.76231326 1206.55752368 C-128.31602334 1211.21412607 -129.86855364 1215.87112025 -131.42025375 1220.52839279 C-131.64158746 1221.19270038 -131.86292117 1221.85700796 -132.09096196 1222.54144608 C-132.5406343 1223.89110258 -132.99030396 1225.24075998 -133.43997096 1226.59041826 C-137.64715903 1239.21767311 -141.85801167 1251.84370351 -146.07013594 1264.46931247 C-149.68618373 1275.30850165 -153.29906741 1286.14874125 -156.90966797 1296.98974609 C-161.10587785 1309.5890666 -165.30402383 1322.18773919 -169.5052861 1334.78537595 C-169.95265251 1336.12683808 -170.40001641 1337.46830105 -170.84737778 1338.80976486 C-171.06748092 1339.46976575 -171.28758407 1340.12976664 -171.51435701 1340.80976755 C-173.06744361 1345.46729833 -174.61913466 1350.12529269 -176.1702919 1354.78346634 C-178.25391558 1361.04051478 -180.34069976 1367.29650284 -182.42965698 1373.55177307 C-183.19786608 1375.85374428 -183.96504137 1378.15606077 -184.73113632 1380.45873642 C-185.77227321 1383.58756589 -186.81705358 1386.71515434 -187.86282349 1389.84243774 C-188.16914015 1390.76584918 -188.47545681 1391.68926061 -188.7910558 1392.64065421 C-189.0698684 1393.47187651 -189.34868099 1394.3030988 -189.63594246 1395.15950966 C-189.87695753 1395.88223017 -190.11797261 1396.60495069 -190.36629117 1397.34957182 C-191 1399 -191 1399 -192 1400 C-193.58991123 1400.09703499 -195.18415482 1400.12371626 -196.77702427 1400.12304783 C-197.8170672 1400.12503888 -198.85711013 1400.12702993 -199.92866951 1400.12908131 C-201.08525926 1400.12616847 -202.24184901 1400.12325563 -203.43348694 1400.12025452 C-205.26011648 1400.12153615 -205.26011648 1400.12153615 -207.12364763 1400.12284368 C-210.51907853 1400.12421191 -213.91445251 1400.12106428 -217.30987656 1400.11606562 C-220.96565321 1400.11176455 -224.62142796 1400.1132073 -228.27720642 1400.1139679 C-234.61618025 1400.11449335 -240.95514382 1400.11134432 -247.29411507 1400.10573006 C-256.45930844 1400.09761795 -265.62449683 1400.09500013 -274.78969341 1400.09374207 C-289.65805688 1400.09155109 -304.52641489 1400.08488977 -319.39477539 1400.07543945 C-333.84171522 1400.06626651 -348.28865356 1400.0591851 -362.7355957 1400.05493164 C-363.62545766 1400.05466892 -364.51531962 1400.05440619 -365.43214709 1400.05413551 C-369.89612968 1400.05283051 -374.36011228 1400.05156679 -378.82409489 1400.05032361 C-415.88273379 1400.03994957 -452.94136647 1400.02233002 -490 1400 C-489.52285629 1398.23540182 -489.04461803 1396.47109958 -488.56591606 1394.70692348 C-488.16661331 1393.23313249 -488.16661331 1393.23313249 -487.75924385 1391.72956795 C-486.93120318 1388.7526676 -485.99669955 1385.83550017 -484.97314453 1382.92016602 C-484.59985519 1381.8509491 -484.22656586 1380.78173218 -483.84196472 1379.68011475 C-483.44294449 1378.54946594 -483.04392426 1377.41881714 -482.6328125 1376.25390625 C-481.99277031 1374.42560272 -481.99277031 1374.42560272 -481.33979797 1372.56036377 C-480.18102268 1369.25041078 -479.0176625 1365.94208644 -477.85346603 1362.63403702 C-476.61701246 1359.11793711 -475.38500174 1355.60028111 -474.15258789 1352.08276367 C-472.10816857 1346.24911676 -470.06146206 1340.41627733 -468.01318359 1334.58398438 C-465.20751738 1326.59443847 -462.40898081 1318.60241323 -459.61328125 1310.609375 C-459.18339905 1309.38036972 -458.75351685 1308.15136444 -458.31060791 1306.88511658 C-457.44939027 1304.42291665 -456.58818415 1301.96071269 -455.72698975 1299.49850464 C-453.55741581 1293.29678056 -451.38611974 1287.09565958 -449.21484375 1280.89453125 C-444.41333503 1267.18106661 -439.61322205 1253.46711379 -434.81350708 1239.75302124 C-432.62573115 1233.50199324 -430.43786084 1227.25099828 -428.25 1221 C-427.37499955 1218.50000016 -426.49999955 1216.00000016 -425.625 1213.5 C-382.3125 1089.75 -339 966 -41.06277466 114.75082397 C-40.18682651 112.24808881 -39.31091104 109.74534221 -38.43502808 107.24258423 C-36.26230101 101.0343386 -34.08902656 94.82628571 -31.91455078 88.61865234 C-27.80005598 76.87080555 -23.69145847 65.12100429 -19.60089111 53.36480713 C-17.89870679 48.47290818 -16.19391023 43.58192075 -14.48852921 38.69113541 C-13.09744899 34.70092987 -11.7098747 30.7095282 -10.32493401 26.71718788 C-9.26930817 23.67752824 -8.20844664 20.63969581 -7.1484375 17.6015625 C-6.58272537 15.96533432 -6.58272537 15.96533432 -6.00558472 14.29605103 C-5.47567429 12.78172989 -5.47567429 12.78172989 -4.93505859 11.23681641 C-4.63199799 10.36521881 -4.32893738 9.49362122 -4.01669312 8.59561157 C-2.86324114 5.65085543 -1.41435782 2.82871564 0 0 Z " fill="#FEFEFE" transform="translate(827,306)"/>
<path d="M0 0 C0.66 0 1.32 0 2 0 C10.17699364 23.90801923 18.30943945 47.82997861 26.2890625 71.8046875 C26.63108452 72.83219368 26.97310654 73.85969986 27.32549286 74.91834259 C29.76085706 82.23649915 32.19326205 89.55563782 34.625 96.875 C37.40684731 105.24806413 40.189983 113.62069691 42.9765625 121.9921875 C43.31785439 123.01758385 43.65914627 124.04298019 44.01078033 125.09944916 C48.60042175 138.88156955 53.24875532 152.6421365 57.9609375 166.3828125 C63.15271994 181.52229511 68.25778514 196.6892016 73.3125 211.875 C73.66738873 212.9411063 74.02227745 214.0072126 74.38792038 215.10562515 C77.29250597 223.83327844 80.1931301 232.56224733 83.09362793 241.29125977 C85.62309591 248.9031135 88.15407985 256.51446068 90.6875 264.125 C91.04268707 265.19208191 91.39787415 266.25916382 91.76382446 267.35858154 C96.44888152 281.42669744 101.18962382 295.47426553 106 309.5 C111.17894017 324.60036575 116.27078249 339.72826196 121.3125 354.875 C121.84491806 356.47441437 121.84491806 356.47441437 122.38809204 358.10614014 C125.29262042 366.83362176 128.19318716 375.56241905 131.09362793 384.29125977 C133.62309591 391.90311349 136.15405572 399.51446872 138.6875 407.125 C139.04264553 408.19191574 139.39779106 409.25883148 139.76369858 410.358078 C144.72739827 425.26220424 149.75952642 440.14126245 154.85461807 455.00093079 C161.93096758 475.64552844 168.83352071 496.34780088 175.72802734 517.05371094 C177.5527499 522.53372241 179.38028599 528.01279129 181.2085247 533.49163055 C182.63187829 537.75810054 184.05382 542.02504 185.47531509 546.29212952 C186.15031037 548.31778129 186.82574952 550.34328521 187.50164413 552.36863708 C188.43076489 555.15348207 189.35798459 557.93895255 190.28466797 560.72460938 C190.56189697 561.55427216 190.83912598 562.38393494 191.12475586 563.23873901 C193 568.88570605 193 568.88570605 193 570 C66.28 570 -60.44 570 -191 570 C-177.13973283 527.26417624 -177.13973283 527.26417624 -171.3203125 509.828125 C-170.65346843 507.82691256 -169.98671303 505.82567056 -169.32003784 503.82440186 C-167.94495735 499.69771548 -166.56883969 495.57137705 -165.19189453 491.4453125 C-163.47361855 486.29616546 -161.7580567 481.14611891 -160.04321671 475.99582672 C-153.44987515 456.19715369 -146.8221126 436.41178284 -140.0546875 416.671875 C-134.85827134 401.51399666 -129.74835996 386.32867272 -124.6875 371.125 C-124.33263393 370.05897301 -123.97776787 368.99294601 -123.61214828 367.89461517 C-121.07259549 360.26379782 -118.53598144 352.63200485 -116 345 C-113.10615361 336.29100497 -110.21105615 327.5824288 -107.3125 318.875 C-106.95731293 317.80791809 -106.60212585 316.74083618 -106.23617554 315.64141846 C-101.27575458 300.74645004 -96.24501196 285.87728783 -91.1519165 271.02722168 C-86.25759545 256.75056758 -81.45397178 242.44482241 -76.6875 228.125 C-76.15508194 226.52558563 -76.15508194 226.52558563 -75.61190796 224.89385986 C-73.07243598 217.26329404 -70.53589813 209.63175415 -68 202 C-65.10615361 193.29100497 -62.21105677 184.58242859 -59.3125 175.875 C-58.95708445 174.80723265 -58.60166889 173.73946529 -58.23548317 172.63934135 C-53.29094559 157.79207737 -48.276348 142.97056469 -43.19893456 128.16827583 C-38.15592135 113.45928782 -33.21191951 98.718355 -28.30078125 83.96484375 C-27.93216854 82.8575655 -27.56355583 81.75028725 -27.18377304 80.60945511 C-24.55784353 72.71952509 -21.93491028 64.82860028 -19.3125 56.9375 C-16.64777488 48.9195187 -13.9819663 40.90190039 -11.31368065 32.88510323 C-10.26274811 29.7258936 -9.21363654 26.56608334 -8.16462708 23.40623474 C-7.52300685 21.4777437 -6.8813031 19.54928045 -6.23950195 17.62084961 C-5.81178497 16.32994919 -5.81178497 16.32994919 -5.37542725 15.01296997 C-3.69233577 9.96325605 -1.89851386 4.97288506 0 0 Z " fill="#491F9F" transform="translate(998,626)"/>
</svg>
